<svg xmlns="http://www.w3.org/2000/svg" width="22" height="22" viewBox="0 0 22 22">
  <path fill="#545967" d="M20.5031982,5.61912821 C19.5205649,3.89625641 18.1876856,2.53225641 16.5042096,1.52682051 C14.8204829,0.521333333 12.9823554,0.0187179487 10.9885239,0.0187179487 C8.99494305,0.0187179487 7.15621412,0.521487179 5.47283827,1.52682051 C3.78921185,2.53220513 2.45638269,3.89625641 1.47374943,5.61912821 C0.491266515,7.34194872 0,9.22328205 0,11.2630769 C0,13.7133333 0.698587699,15.9166667 2.0961139,17.873641 C3.49348975,19.8307692 5.29869248,21.1850256 7.51157175,21.9365641 C7.76915718,21.9854872 7.95984055,21.9510769 8.08382232,21.8342051 C8.20785421,21.7171795 8.26979499,21.5706154 8.26979499,21.3951282 C8.26979499,21.3658462 8.26733941,21.1024103 8.26257859,20.6045128 C8.25766743,20.1066154 8.25536219,19.6722564 8.25536219,19.301641 L7.92626424,19.3598974 C7.71643736,19.3992308 7.45173576,19.4158974 7.13215945,19.4111795 C6.81273349,19.4066154 6.48112984,19.372359 6.13779954,19.3086667 C5.79431891,19.2455385 5.47484282,19.0991282 5.17912073,18.8697436 C4.88354897,18.640359 4.6737221,18.3401026 4.54969021,17.9694359 L4.40661503,17.6325128 C4.31124829,17.4082051 4.16110706,17.1590256 3.95599089,16.8858974 C3.75087472,16.6125128 3.5434533,16.4271795 3.33362642,16.3295897 L3.23344875,16.2562051 C3.16669704,16.2074359 3.10475626,16.1486154 3.04747608,16.080359 C2.99024601,16.0121026 2.94739863,15.9437949 2.9187836,15.8753846 C2.89011845,15.8069231 2.91387244,15.7507692 2.99029613,15.7067179 C3.06671982,15.6626667 3.20483371,15.6412821 3.40523918,15.6412821 L3.69128929,15.6850256 C3.88207289,15.7241538 4.11805923,15.8410256 4.39954897,16.036359 C4.68088838,16.2315385 4.91216401,16.4852821 5.09342597,16.7974872 C5.31292483,17.1977949 5.57737585,17.5028205 5.88753075,17.7127179 C6.19743508,17.9226154 6.50989522,18.0273846 6.82461048,18.0273846 C7.13932574,18.0273846 7.41114351,18.0029744 7.64016401,17.9544103 C7.86893394,17.9055897 8.08357175,17.8322051 8.28397722,17.7346667 C8.36982232,17.0804103 8.60355353,16.5777949 8.98497039,16.2264615 C8.44133485,16.168 7.95257403,16.0799487 7.51843736,15.9628718 C7.08455125,15.845641 6.63618223,15.6553846 6.17363098,15.3915897 C5.71082916,15.1281538 5.32690661,14.8010256 5.0217631,14.4107692 C4.71656948,14.0203077 4.46610023,13.5076923 4.27070615,12.8733846 C4.07521185,12.2388205 3.97743964,11.5068205 3.97743964,10.6771795 C3.97743964,9.49589744 4.35429613,8.49066667 5.10785877,7.66092308 C4.75485649,6.77282051 4.78818223,5.77723077 5.20793622,4.67425641 C5.48456492,4.58630769 5.89479727,4.65230769 6.4384328,4.87184615 C6.98216856,5.09148718 7.38027335,5.27964103 7.63314806,5.43564103 C7.88602278,5.59158974 8.08863326,5.72374359 8.24128018,5.83092308 C9.1285467,5.57723077 10.0441777,5.45035897 10.9884237,5.45035897 C11.9326697,5.45035897 12.8485011,5.57723077 13.7358178,5.83092308 L14.2795034,5.47969231 C14.6512984,5.24533333 15.0903462,5.0305641 15.5955945,4.83533333 C16.1011435,4.64020513 16.4877221,4.58646154 16.7549294,4.67441026 C17.1840046,5.7774359 17.2222415,6.77297436 16.869139,7.66107692 C17.6226515,8.49082051 17.9996583,9.49630769 17.9996583,10.6773333 C17.9996583,11.5069744 17.9015353,12.2412821 17.7063417,12.8807179 C17.5108975,13.5202564 17.2582733,14.032359 16.948369,14.4181026 C16.6381139,14.8037949 16.2517358,15.128359 15.7891845,15.3917436 C15.326533,15.6553333 14.8780137,15.8455897 14.4441276,15.9628205 C14.010041,16.0800513 13.5212802,16.1681538 12.9776446,16.2267179 C13.4734715,16.6657949 13.7214351,17.3588718 13.7214351,18.305641 L13.7214351,21.3947179 C13.7214351,21.5702051 13.7810706,21.7167179 13.9004419,21.8337949 C14.0196629,21.9506667 14.2079408,21.9850769 14.4655262,21.9361026 C16.6787062,21.1846667 18.4839089,19.830359 19.8812346,17.8732308 C21.27841,15.9162564 21.9772483,13.7129231 21.9772483,11.2626667 C21.9767472,9.22312821 21.4852301,7.34194872 20.5031982,5.61912821 Z"/>
</svg>
