<?xml version="1.0" encoding="utf-8"?>
<!-- Svg Vector Icons : http://www.onlinewebfonts.com/icon -->
<!DOCTYPE svg PUBLIC "-//W3C//DTD SVG 1.1//EN" "http://www.w3.org/Graphics/SVG/1.1/DTD/svg11.dtd">
<svg version="1.1" xmlns="http://www.w3.org/2000/svg" xmlns:xlink="http://www.w3.org/1999/xlink" x="0px" y="0px" viewBox="0 0 1000 1000" enable-background="new 0 0 1000 1000" xml:space="preserve">
<metadata> Svg Vector Icons : http://www.onlinewebfonts.com/icon </metadata>
<g><path d="M702.3,799.8H297.7c-57.4,0-87.2-35.5-87.2-86.3V309c0-51.4,31.4-108.8,87.2-108.8h404.6c55.8,0,107.9,57.5,107.9,108.8v404.6C810.2,764.4,759.7,799.8,702.3,799.8z M297.7,258.7c-19,0-28.7,25.9-28.7,50.3v404.6c0,24.2,14.2,27.8,28.7,27.8h404.6c14.6,0,49.4-3.6,49.4-27.8V309c0-24.5-30.4-50.3-49.4-50.3H297.7z"/><path d="M521.9,331.8h-14.6c-8.1,0-14.6-6.5-14.6-14.6s6.5-14.6,14.6-14.6h14.6c8.1,0,14.6,6.5,14.6,14.6S530,331.8,521.9,331.8z"/><path d="M312.8,448.8c-8.1,0-14.6-6.5-14.6-14.6v-34c0-48-10.3-97.6,71-97.6h79.5c8.1,0,14.6,6.5,14.6,14.6s-6.5,14.6-14.6,14.6h-79.5c-52.1,0-41.8,17.2-41.8,68.4v34C327.5,442.3,320.9,448.8,312.8,448.8z"/><path d="M960.7,317.2h-73.1c-16.1,0-29.3-13.1-29.3-29.3c0-16.1,13.1-29.3,29.3-29.3h73.1c16.1,0,29.3,13.1,29.3,29.3C990,304.1,976.9,317.2,960.7,317.2z"/><path d="M960.7,478.1h-73.1c-16.1,0-29.3-13.1-29.3-29.3c0-16.1,13.1-29.3,29.3-29.3h73.1c16.1,0,29.3,13.1,29.3,29.3C990,465,976.9,478.1,960.7,478.1z"/><path d="M960.7,624.3h-73.1c-16.1,0-29.3-13.1-29.3-29.3s13.1-29.3,29.3-29.3h73.1c16.1,0,29.3,13.1,29.3,29.3S976.9,624.3,960.7,624.3z"/><path d="M960.7,756h-73.1c-16.1,0-29.3-13.1-29.3-29.3c0-16.1,13.1-29.3,29.3-29.3h73.1c16.1,0,29.3,13.1,29.3,29.3C990,742.9,976.9,756,960.7,756z"/><path d="M283.6,156.3c-16.1,0-29.3-13.1-29.3-29.3V53.9c0-16.1,13.1-29.3,29.3-29.3s29.3,13.1,29.3,29.3V127C312.8,143.2,299.8,156.3,283.6,156.3z"/><path d="M429.9,156.3c-16.1,0-29.3-13.1-29.3-29.3V53.9c0-16.1,13.1-29.3,29.3-29.3s29.3,13.1,29.3,29.3V127C459.1,143.2,446,156.3,429.9,156.3z"/><path d="M590.8,156.3c-16.1,0-29.3-13.1-29.3-29.3V53.9c0-16.1,13.1-29.3,29.3-29.3S620,37.7,620,53.9V127C620,143.2,606.9,156.3,590.8,156.3z"/><path d="M722.4,156.3c-16.1,0-29.3-13.1-29.3-29.3V53.9c0-16.1,13.1-29.3,29.3-29.3c16.1,0,29.3,13.1,29.3,29.3V127C751.7,143.2,738.6,156.3,722.4,156.3z"/><path d="M283.6,975.4c-16.1,0-29.3-13.1-29.3-29.3V873c0-16.1,13.1-29.3,29.3-29.3s29.3,13.1,29.3,29.3v73.1C312.8,962.3,299.8,975.4,283.6,975.4z"/><path d="M429.9,975.4c-16.1,0-29.3-13.1-29.3-29.3V873c0-16.1,13.1-29.3,29.3-29.3s29.3,13.1,29.3,29.3v73.1C459.1,962.3,446,975.4,429.9,975.4z"/><path d="M590.8,975.4c-16.1,0-29.3-13.1-29.3-29.3V873c0-16.1,13.1-29.3,29.3-29.3S620,856.8,620,873v73.1C620,962.3,606.9,975.4,590.8,975.4z"/><path d="M722.4,975.4c-16.1,0-29.3-13.1-29.3-29.3V873c0-16.1,13.1-29.3,29.3-29.3c16.1,0,29.3,13.1,29.3,29.3v73.1C751.7,962.3,738.6,975.4,722.4,975.4z"/><path d="M112.4,317.2H39.3c-16.1,0-29.3-13.1-29.3-29.3c0-16.1,13.1-29.3,29.3-29.3h73.1c16.1,0,29.3,13.1,29.3,29.3C141.6,304.1,128.5,317.2,112.4,317.2z"/><path d="M112.4,478.1H39.3C23.1,478.1,10,465,10,448.8c0-16.1,13.1-29.3,29.3-29.3h73.1c16.1,0,29.3,13.1,29.3,29.3C141.6,465,128.5,478.1,112.4,478.1z"/><path d="M112.4,624.3H39.3c-16.1,0-29.3-13.1-29.3-29.3s13.1-29.3,29.3-29.3h73.1c16.1,0,29.3,13.1,29.3,29.3S128.5,624.3,112.4,624.3z"/><path d="M112.4,756H39.3C23.1,756,10,742.9,10,726.7c0-16.1,13.1-29.3,29.3-29.3h73.1c16.1,0,29.3,13.1,29.3,29.3C141.6,742.9,128.5,756,112.4,756z"/></g>
</svg>