<svg version="1.2" baseProfile="tiny-ps" xmlns="http://www.w3.org/2000/svg" viewBox="0 0 1000 1000" width="1000" height="1000">
	<title>processor_2-svg</title>
	<style>
		tspan { white-space:pre }
		.shp0 { fill: #ffffff } 
	</style>
	<path id="Layer" fill-rule="evenodd" class="shp0" d="M702.3 799.8L297.7 799.8C240.3 799.8 210.5 764.3 210.5 713.5L210.5 309C210.5 257.6 241.9 200.2 297.7 200.2L702.3 200.2C758.1 200.2 810.2 257.7 810.2 309L810.2 713.6C810.2 764.4 759.7 799.8 702.3 799.8ZM297.7 258.7C278.7 258.7 269 284.6 269 309L269 713.6C269 737.8 283.2 741.4 297.7 741.4L702.3 741.4C716.9 741.4 751.7 737.8 751.7 713.6L751.7 309C751.7 284.5 721.3 258.7 702.3 258.7L297.7 258.7Z" />
	<g id="Layer">
		<path id="Layer" class="shp0" d="M521.9 331.8L507.3 331.8C499.2 331.8 492.7 325.3 492.7 317.2C492.7 309.1 499.2 302.6 507.3 302.6L521.9 302.6C530 302.6 536.5 309.1 536.5 317.2C536.5 325.3 530 331.8 521.9 331.8Z" />
		<path id="Layer" class="shp0" d="M312.8 448.8C304.7 448.8 298.2 442.3 298.2 434.2L298.2 400.2C298.2 352.2 287.9 302.6 369.2 302.6L448.7 302.6C456.8 302.6 463.3 309.1 463.3 317.2C463.3 325.3 456.8 331.8 448.7 331.8L369.2 331.8C317.1 331.8 327.4 349 327.4 400.2L327.4 434.2C327.5 442.3 320.9 448.8 312.8 448.8Z" />
		<path id="Layer" class="shp0" d="M960.7 317.2L887.6 317.2C871.5 317.2 858.3 304.1 858.3 287.9C858.3 271.8 871.4 258.6 887.6 258.6L960.7 258.6C976.8 258.6 990 271.7 990 287.9C990 304.1 976.9 317.2 960.7 317.2Z" />
		<path id="Layer" class="shp0" d="M960.7 478.1L887.6 478.1C871.5 478.1 858.3 465 858.3 448.8C858.3 432.7 871.4 419.5 887.6 419.5L960.7 419.5C976.8 419.5 990 432.6 990 448.8C990 465 976.9 478.1 960.7 478.1Z" />
		<path id="Layer" class="shp0" d="M960.7 624.3L887.6 624.3C871.5 624.3 858.3 611.2 858.3 595C858.3 578.8 871.4 565.7 887.6 565.7L960.7 565.7C976.8 565.7 990 578.8 990 595C990 611.2 976.9 624.3 960.7 624.3Z" />
		<path id="Layer" class="shp0" d="M960.7 756L887.6 756C871.5 756 858.3 742.9 858.3 726.7C858.3 710.6 871.4 697.4 887.6 697.4L960.7 697.4C976.8 697.4 990 710.5 990 726.7C990 742.9 976.9 756 960.7 756Z" />
		<path id="Layer" class="shp0" d="M283.6 156.3C267.5 156.3 254.3 143.2 254.3 127L254.3 53.9C254.3 37.8 267.4 24.6 283.6 24.6C299.8 24.6 312.9 37.7 312.9 53.9L312.9 127C312.8 143.2 299.8 156.3 283.6 156.3Z" />
		<path id="Layer" class="shp0" d="M429.9 156.3C413.8 156.3 400.6 143.2 400.6 127L400.6 53.9C400.6 37.8 413.7 24.6 429.9 24.6C446.1 24.6 459.2 37.7 459.2 53.9L459.2 127C459.1 143.2 446 156.3 429.9 156.3Z" />
		<path id="Layer" class="shp0" d="M590.8 156.3C574.7 156.3 561.5 143.2 561.5 127L561.5 53.9C561.5 37.8 574.6 24.6 590.8 24.6C607 24.6 620 37.7 620 53.9L620 127C620 143.2 606.9 156.3 590.8 156.3Z" />
		<path id="Layer" class="shp0" d="M722.4 156.3C706.3 156.3 693.1 143.2 693.1 127L693.1 53.9C693.1 37.8 706.2 24.6 722.4 24.6C738.5 24.6 751.7 37.7 751.7 53.9L751.7 127C751.7 143.2 738.6 156.3 722.4 156.3Z" />
		<path id="Layer" class="shp0" d="M283.6 975.4C267.5 975.4 254.3 962.3 254.3 946.1L254.3 873C254.3 856.9 267.4 843.7 283.6 843.7C299.8 843.7 312.9 856.8 312.9 873L312.9 946.1C312.8 962.3 299.8 975.4 283.6 975.4Z" />
		<path id="Layer" class="shp0" d="M429.9 975.4C413.8 975.4 400.6 962.3 400.6 946.1L400.6 873C400.6 856.9 413.7 843.7 429.9 843.7C446.1 843.7 459.2 856.8 459.2 873L459.2 946.1C459.1 962.3 446 975.4 429.9 975.4Z" />
		<path id="Layer" class="shp0" d="M590.8 975.4C574.7 975.4 561.5 962.3 561.5 946.1L561.5 873C561.5 856.9 574.6 843.7 590.8 843.7C607 843.7 620 856.8 620 873L620 946.1C620 962.3 606.9 975.4 590.8 975.4Z" />
		<path id="Layer" class="shp0" d="M722.4 975.4C706.3 975.4 693.1 962.3 693.1 946.1L693.1 873C693.1 856.9 706.2 843.7 722.4 843.7C738.5 843.7 751.7 856.8 751.7 873L751.7 946.1C751.7 962.3 738.6 975.4 722.4 975.4Z" />
		<path id="Layer" class="shp0" d="M112.4 317.2L39.3 317.2C23.2 317.2 10 304.1 10 287.9C10 271.8 23.1 258.6 39.3 258.6L112.4 258.6C128.5 258.6 141.7 271.7 141.7 287.9C141.6 304.1 128.5 317.2 112.4 317.2Z" />
		<path id="Layer" class="shp0" d="M112.4 478.1L39.3 478.1C23.1 478.1 10 465 10 448.8C10 432.7 23.1 419.5 39.3 419.5L112.4 419.5C128.5 419.5 141.7 432.6 141.7 448.8C141.6 465 128.5 478.1 112.4 478.1Z" />
		<path id="Layer" class="shp0" d="M112.4 624.3L39.3 624.3C23.2 624.3 10 611.2 10 595C10 578.8 23.1 565.7 39.3 565.7L112.4 565.7C128.5 565.7 141.7 578.8 141.7 595C141.7 611.2 128.5 624.3 112.4 624.3Z" />
		<path id="Layer" class="shp0" d="M112.4 756L39.3 756C23.1 756 10 742.9 10 726.7C10 710.6 23.1 697.4 39.3 697.4L112.4 697.4C128.5 697.4 141.7 710.5 141.7 726.7C141.6 742.9 128.5 756 112.4 756Z" />
	</g>
</svg>